# xmcd CD database file
# Copyright (C) 1997 Ti Kan
# 
# Track frame offsets:
#     183
#     12583
#     26398
#     40885
#     53993
#     68140
#     79928
#     93765
#     106700
#     120663
#     134183
#     147323
#     160260
#     173305
#     185018
#     196798
#     209770
#     222028
#     235288
#     249078
#     262970
#     276295
#     290048
# 
# Disc length: 4052 seconds
# 
# Revision: 1
# Processed by: cddbd v1.4b41PL1 Copyright (c) Steve Scherf et al.
# Submitted via: DiscPlay 4.0.3
# 
DISCID=4e0fd217
DTITLE=Gertrude "Ma" Rainey - The Complete Gertrude "Ma" Rainey Collection 1
DTITLE=923/28 Vol. 3 1926/27
DYEAR=1900
DGENRE=
TTITLE0=Mountain Jack Blues
TTITLE1=Down In The Basement
TTITLE2=Sissy Blues
TTITLE3=Broken Soul Blues
TTITLE4=Trust No Man
TTITLE5=Morning Hour Blues
TTITLE6=Weepin' Woman Blues
TTITLE7=Soon This Morning
TTITLE8=Little Low Mama Blues
TTITLE9=Grievin' Hearted Blues
TTITLE10=Don't Fish In My Sea
TTITLE11=Big Boy BLues
TTITLE12=Blues Oh Blues
TTITLE13=Damper Down Blues
TTITLE14=Gone Daddy Blues
TTITLE15=Oh Papa Blues
TTITLE16=Misery Blues
TTITLE17=Dead Drunk Blues
TTITLE18=Slow Driving Moan
TTITLE19=Blues The World Forgot (Part 1)
TTITLE20=Blues The World Forgot (Part 2)
TTITLE21=Ma Rainey's Black Bottom
TTITLE22=Hellish Rag
EXTD=
EXTT0=
EXTT1=
EXTT2=
EXTT3=
EXTT4=
EXTT5=
EXTT6=
EXTT7=
EXTT8=
EXTT9=
EXTT10=
EXTT11=
EXTT12=
EXTT13=
EXTT14=
EXTT15=
EXTT16=
EXTT17=
EXTT18=
EXTT19=
EXTT20=
EXTT21=
EXTT22=
PLAYORDER=
